<?xml version="1.0" encoding="utf-8"?>
<!-- Generator: Adobe Illustrator 25.2.0, SVG Export Plug-In . SVG Version: 6.00 Build 0)  -->
<svg version="1.1" id="Layer_1" xmlns="http://www.w3.org/2000/svg" xmlns:xlink="http://www.w3.org/1999/xlink" x="0px" y="0px"
	 viewBox="0 0 1169.8 231.7" style="enable-background:new 0 0 1169.8 231.7;" xml:space="preserve">
<style type="text/css">
	.st0{clip-path:url(#SVGID_2_);}
	.st1{fill-rule:evenodd;clip-rule:evenodd;fill:#0E0EEB;}
	.st2{clip-path:url(#SVGID_4_);}
	.st3{fill-rule:evenodd;clip-rule:evenodd;fill:#FE4545;}
	.st4{clip-path:url(#SVGID_6_);}
	.st5{fill:#FE4545;}
	.st6{fill:#0E0EEB;}
	.st7{font-family:'BerlinSansFBDemi-Bold';}
	.st8{font-size:168.2309px;}
</style>
<g>
	<g>
		<defs>
			<rect id="SVGID_1_" x="17.5" y="21.4" width="201.6" height="201.6"/>
		</defs>
		<clipPath id="SVGID_2_">
			<use xlink:href="#SVGID_1_"  style="overflow:visible;"/>
		</clipPath>
		<g class="st0">
			<path class="st1" d="M89.2,22.1C70.8,24.8,53.8,33.5,40.8,47C29.7,58.4,22.1,72.7,19,88.4c-1.6,9.2-1.9,18.5-0.8,27.8
				c2.1,15.1,8.3,29.3,17.9,41.1c1.6,2,17,17.7,34.2,34.7l31.2,31l31-30.8c17.1-16.9,32.5-32.6,34.2-34.7
				c10.9-13.2,17.8-30.8,18.6-47.3l0.2-5.4L154,105l-0.3,4.4c-1.1,12.2-6.4,23.6-15,32.2c-7.7,7.5-17.4,12.6-27.9,14.5
				c-6.2,0.8-12.4,0.8-18.6,0c-7.2-1.4-14.1-4.2-20.3-8.2c-4.8-3.5-9-7.7-12.7-12.3c-4.7-6.3-7.8-13.5-9.3-21.2
				c-0.9-6.3-0.9-12.8,0-19.1c4-21.3,20.7-37.9,42-41.8c1.8-0.4,3.7-0.6,5.6-0.7c1.3-0.1,2.7-0.3,4-0.5V21.4h-4.1
				C94.6,21.5,91.9,21.7,89.2,22.1z"/>
		</g>
	</g>
	<g>
		<defs>
			<rect id="SVGID_3_" x="17.7" y="21.3" width="201.6" height="201.6"/>
		</defs>
		<clipPath id="SVGID_4_">
			<use xlink:href="#SVGID_3_"  style="overflow:visible;"/>
		</clipPath>
		<g class="st2">
			<path class="st3" d="M122.7,36.6v15.3l18.1,0.1l15.2,0.1l0.1,15.8l0.1,16.4h29.4v-63h-63L122.7,36.6z"/>
		</g>
	</g>
	<g>
		<defs>
			<rect id="SVGID_5_" x="17.6" y="21.4" width="201.6" height="201.6"/>
		</defs>
		<clipPath id="SVGID_6_">
			<use xlink:href="#SVGID_5_"  style="overflow:visible;"/>
		</clipPath>
		<g class="st4">
			<circle class="st5" cx="101.6" cy="105.4" r="29.4"/>
		</g>
	</g>
	<text transform="matrix(0.7418 0 0 1 211.127 171.9895)"><tspan x="0" y="0" class="st6 st7 st8">Drive</tspan><tspan x="404.7" y="0" class="st5 st7 st8">Time</tspan></text>
</g>
</svg>
