<?xml version="1.0" encoding="UTF-8" standalone="no" ?>
<!DOCTYPE svg PUBLIC "-//W3C//DTD SVG 1.1//EN" "http://www.w3.org/Graphics/SVG/1.1/DTD/svg11.dtd">
<svg xmlns="http://www.w3.org/2000/svg" xmlns:xlink="http://www.w3.org/1999/xlink" version="1.1" width="1280" height="720" viewBox="0 -211.67 1280 720" xml:space="preserve">
<desc>Created with Fabric.js 5.2.4</desc>
<defs>
</defs>
<rect x="0" y="0" width="100%" height="100%" fill="transparent"></rect>
<g transform="matrix(1 0 0 1 640 360)" id="889c0811-70dd-4faa-be32-0eb0f57b11f0"  >
<rect style="stroke: none; stroke-width: 1; stroke-dasharray: none; stroke-linecap: butt; stroke-dashoffset: 0; stroke-linejoin: miter; stroke-miterlimit: 4; fill: rgb(255,255,255); fill-rule: nonzero; opacity: 1; visibility: hidden;" vector-effect="non-scaling-stroke"  x="-640" y="-360" rx="0" ry="0" width="1280" height="720" />
</g>
<g transform="matrix(0 0 0 0 0 0)" id="96a50d15-3c9b-43aa-a840-de2f55f22c43"  >
</g>
<g transform="matrix(4.2 0 0 4.2 158.15 205.61)" clip-path="url(#CLIPPATH_70)"  >
<clipPath id="CLIPPATH_70" >
	<rect transform="matrix(1 0 0 1 4 0)" id="clip0_4_879" x="-24" y="-24" rx="0" ry="0" width="48" height="48" />
</clipPath>
<path style="stroke: none; stroke-width: 1; stroke-dasharray: none; stroke-linecap: butt; stroke-dashoffset: 0; stroke-linejoin: miter; stroke-miterlimit: 4; fill: rgb(14,14,235); fill-rule: evenodd; opacity: 1;" vector-effect="non-scaling-stroke"  transform=" translate(-20, -24)" d="M 17.0696 0.169952 C 12.6026 0.854857 8.61474 2.90489 5.54899 6.09227 C 2.86581 8.88181 1.12579 12.1777 0.343887 15.951 C -0.0162975 17.6893 -0.111105 20.8213 0.143494 22.5701 C 0.680632 26.2595 2.06183 29.4325 4.39947 32.347 C 4.78948 32.8333 8.45495 36.5541 12.5449 40.6155 L 19.9811 48 L 27.3647 40.6675 C 31.4257 36.6347 35.0947 32.9139 35.518 32.3991 C 38.1105 29.2461 39.7527 25.0643 39.9393 21.1404 L 40 19.8632 L 32.486 19.9179 L 32.4137 20.958 C 32.2221 23.7146 30.8812 26.5949 28.8439 28.6262 C 27.0804 30.3844 24.6164 31.6673 22.191 32.0901 C 21.0633 32.2867 18.8965 32.2861 17.7584 32.0888 C 16.1836 31.8159 14.2757 31.0431 12.9215 30.1299 C 12.0356 29.5323 10.6363 28.1724 9.90783 27.2011 C 8.82026 25.7507 8.03889 23.9709 7.69042 22.1506 C 7.47098 21.0039 7.46879 18.7432 7.68603 17.6061 C 8.65545 12.5312 12.5969 8.6091 17.6928 7.64826 C 18.1584 7.56047 18.7577 7.48808 19.0246 7.48725 C 19.2916 7.48642 19.9811 7.36046 19.9811 7.36046 L 19.9811 0 L 19.0131 0.0101929 C 18.4807 0.0158094 17.6062 0.0876805 17.0696 0.169952 Z" stroke-linecap="round" />
</g>
<g transform="matrix(4.2 0 0 4.2 210.82 136.26)" clip-path="url(#CLIPPATH_71)"  >
<clipPath id="CLIPPATH_71" >
	<rect transform="matrix(1 0 0 1 -8.5 16.5)" id="clip0_4_879" x="-24" y="-24" rx="0" ry="0" width="48" height="48" />
</clipPath>
<path style="stroke: none; stroke-width: 1; stroke-dasharray: none; stroke-linecap: butt; stroke-dashoffset: 0; stroke-linejoin: miter; stroke-miterlimit: 4; fill: rgb(254,69,69); fill-rule: evenodd; opacity: 1;" vector-effect="non-scaling-stroke"  transform=" translate(-32.5, -7.5)" d="M 25 3.64074 L 25 7.28138 L 29.3101 7.30847 L 32.9393 7.33535 L 32.9651 11.1056 L 32.9911 15.0001 L 36.4955 15.0001 L 40 15.0001 L 40 7.43794 L 40 0.000114918 L 32.8405 0.000114918 L 25 0 L 25 3.64074 Z" stroke-linecap="round" />
</g>
<g transform="matrix(4.2 0 0 4.2 158.21 188.86)" clip-path="url(#CLIPPATH_72)"  >
<clipPath id="CLIPPATH_72" >
	<rect transform="matrix(1 0 0 1 4 4)" id="clip0_4_879" x="-24" y="-24" rx="0" ry="0" width="48" height="48" />
</clipPath>
<circle style="stroke: none; stroke-width: 1; stroke-dasharray: none; stroke-linecap: butt; stroke-dashoffset: 0; stroke-linejoin: miter; stroke-miterlimit: 4; fill: rgb(254,69,69); fill-rule: nonzero; opacity: 1;" vector-effect="non-scaling-stroke"  cx="0" cy="0" r="7" />
</g>
<g transform="matrix(1.35 0 0 1.44 697 206.25)" style="" id="eb8827a1-54e1-496b-a628-4e0bc8015cb8"  >
		<text xml:space="preserve" font-family="Raleway" font-size="134" font-style="normal" font-weight="900" style="stroke: none; stroke-width: 1; stroke-dasharray: none; stroke-linecap: butt; stroke-dashoffset: 0; stroke-linejoin: miter; stroke-miterlimit: 4; fill: rgb(14,14,235); fill-rule: nonzero; opacity: 1; white-space: pre;" ><tspan x="-327.96" y="42.09" >D</tspan><tspan x="-233.36" y="42.09" >r</tspan><tspan x="-178.29" y="42.09" >i</tspan><tspan x="-140.64" y="42.09" >v</tspan><tspan x="-68.28" y="42.09" >e</tspan><tspan x="0.47" y="42.09" style="fill: rgb(254,69,69); ">T</tspan><tspan x="83.41" y="42.09" style="fill: rgb(254,69,69); ">i</tspan><tspan x="121.07" y="42.09" style="fill: rgb(254,69,69); ">m</tspan><tspan x="246.36" y="42.09" style="fill: rgb(254,69,69); ">e</tspan></text>
</g>
<g transform="matrix(0 0 0 0 265.2 657.43)"  >
<g style=""   >
</g>
</g>
</svg>