<svg width="208" height="48" viewBox="0 0 208 48" fill="none" xmlns="http://www.w3.org/2000/svg">
<g clip-path="url(#clip0_4_879)">
<path fill-rule="evenodd" clip-rule="evenodd" d="M17.0696 0.169952C12.6026 0.854857 8.61474 2.90489 5.54899 6.09227C2.86581 8.88181 1.12579 12.1777 0.343887 15.951C-0.0162975 17.6893 -0.111105 20.8213 0.143494 22.5701C0.680632 26.2595 2.06183 29.4325 4.39947 32.347C4.78948 32.8333 8.45495 36.5541 12.5449 40.6155L19.9811 48L27.3647 40.6675C31.4257 36.6347 35.0947 32.9139 35.518 32.3991C38.1105 29.2461 39.7527 25.0643 39.9393 21.1404L40 19.8632L32.486 19.9179L32.4137 20.958C32.2221 23.7146 30.8812 26.5949 28.8439 28.6262C27.0804 30.3844 24.6164 31.6673 22.191 32.0901C21.0633 32.2867 18.8965 32.2861 17.7584 32.0888C16.1836 31.8159 14.2757 31.0431 12.9215 30.1299C12.0356 29.5323 10.6363 28.1724 9.90783 27.2011C8.82026 25.7507 8.03889 23.9709 7.69042 22.1506C7.47098 21.0039 7.46879 18.7432 7.68603 17.6061C8.65545 12.5312 12.5969 8.6091 17.6928 7.64826C18.1584 7.56047 18.7577 7.48808 19.0246 7.48725C19.2916 7.48642 19.9811 7.36046 19.9811 7.36046V0L19.0131 0.0101929C18.4807 0.0158094 17.6062 0.0876805 17.0696 0.169952Z" fill="#212126"/>
<path fill-rule="evenodd" clip-rule="evenodd" d="M25 3.64074V7.28138L29.3101 7.30847L32.9393 7.33535L32.9651 11.1056L32.9911 15.0001H36.4955H40L40 7.43794V0.000114918H32.8405L25 0V3.64074Z" fill="#B7BEC8"/>
<circle cx="20" cy="20" r="7" fill="#B7BEC8"/>
</g>
<path d="M65.968 33.384C63.856 33.384 62.0107 32.904 60.432 31.944C58.8533 30.984 57.6267 29.6507 56.752 27.944C55.8773 26.216 55.44 24.2107 55.44 21.928C55.44 19.624 55.888 17.5973 56.784 15.848C57.7013 14.0773 58.992 12.7013 60.656 11.72C62.3413 10.7173 64.336 10.216 66.64 10.216C69.264 10.216 71.44 10.8453 73.168 12.104C74.896 13.3627 76.016 15.1013 76.528 17.32H71.952C71.6107 16.2747 70.992 15.464 70.096 14.888C69.2 14.2907 68.048 13.992 66.64 13.992C64.4 13.992 62.672 14.7067 61.456 16.136C60.24 17.544 59.632 19.4853 59.632 21.96C59.632 24.4347 60.2293 26.3547 61.424 27.72C62.64 29.064 64.2827 29.736 66.352 29.736C68.3787 29.736 69.904 29.192 70.928 28.104C71.9733 26.9947 72.6027 25.544 72.816 23.752H67.152V20.68H76.944V33H73.168L72.848 30.056C72.1227 31.1227 71.216 31.944 70.128 32.52C69.04 33.096 67.6533 33.384 65.968 33.384ZM87.806 33.384C86.27 33.384 84.8833 33.032 83.646 32.328C82.43 31.624 81.4593 30.6533 80.734 29.416C80.03 28.1573 79.678 26.7067 79.678 25.064C79.678 23.4213 80.0407 21.9813 80.766 20.744C81.4913 19.4853 82.462 18.504 83.678 17.8C84.9153 17.096 86.302 16.744 87.838 16.744C89.3527 16.744 90.718 17.096 91.934 17.8C93.1713 18.504 94.142 19.4853 94.846 20.744C95.5713 21.9813 95.934 23.4213 95.934 25.064C95.934 26.7067 95.5713 28.1573 94.846 29.416C94.142 30.6533 93.1713 31.624 91.934 32.328C90.6967 33.032 89.3207 33.384 87.806 33.384ZM87.806 29.832C88.8727 29.832 89.8007 29.4373 90.59 28.648C91.3793 27.8373 91.774 26.6427 91.774 25.064C91.774 23.4853 91.3793 22.3013 90.59 21.512C89.8007 20.7013 88.8833 20.296 87.838 20.296C86.75 20.296 85.8113 20.7013 85.022 21.512C84.254 22.3013 83.87 23.4853 83.87 25.064C83.87 26.6427 84.254 27.8373 85.022 28.648C85.8113 29.4373 86.7393 29.832 87.806 29.832ZM99.0523 33V10.6H106.7C109.324 10.6 111.479 11.0693 113.164 12.008C114.871 12.9253 116.13 14.2267 116.94 15.912C117.772 17.576 118.188 19.5387 118.188 21.8C118.188 24.0613 117.772 26.0347 116.94 27.72C116.13 29.384 114.871 30.6853 113.164 31.624C111.479 32.5413 109.324 33 106.7 33H99.0523ZM103.148 29.48H106.508C108.386 29.48 109.868 29.1813 110.956 28.584C112.044 27.9653 112.823 27.0907 113.292 25.96C113.762 24.808 113.996 23.4213 113.996 21.8C113.996 20.2 113.762 18.824 113.292 17.672C112.823 16.52 112.044 15.6347 110.956 15.016C109.868 14.3973 108.386 14.088 106.508 14.088H103.148V29.48ZM121.066 33V17.128H124.714L125.098 20.104C125.674 19.08 126.453 18.2693 127.434 17.672C128.437 17.0533 129.61 16.744 130.954 16.744V21.064H129.802C128.906 21.064 128.106 21.2027 127.402 21.48C126.698 21.7573 126.144 22.2373 125.738 22.92C125.354 23.6027 125.162 24.552 125.162 25.768V33H121.066ZM135.322 14.664C134.575 14.664 133.956 14.44 133.466 13.992C132.996 13.544 132.762 12.9787 132.762 12.296C132.762 11.6133 132.996 11.0587 133.466 10.632C133.956 10.184 134.575 9.96 135.322 9.96C136.068 9.96 136.676 10.184 137.146 10.632C137.636 11.0587 137.882 11.6133 137.882 12.296C137.882 12.9787 137.636 13.544 137.146 13.992C136.676 14.44 136.068 14.664 135.322 14.664ZM133.274 33V17.128H137.37V33H133.274ZM145.293 33L139.469 17.128H143.757L147.789 29.128L151.821 17.128H156.109L150.253 33H145.293ZM164.983 33.384C163.383 33.384 161.965 33.0427 160.727 32.36C159.49 31.6773 158.519 30.7173 157.815 29.48C157.111 28.2427 156.759 26.8133 156.759 25.192C156.759 23.5493 157.101 22.088 157.783 20.808C158.487 19.528 159.447 18.536 160.663 17.832C161.901 17.1067 163.351 16.744 165.015 16.744C166.573 16.744 167.949 17.0853 169.143 17.768C170.338 18.4507 171.266 19.3893 171.927 20.584C172.61 21.7573 172.951 23.0693 172.951 24.52C172.951 24.7547 172.941 25 172.919 25.256C172.919 25.512 172.909 25.7787 172.887 26.056H160.823C160.909 27.2933 161.335 28.264 162.103 28.968C162.893 29.672 163.842 30.024 164.951 30.024C165.783 30.024 166.477 29.8427 167.031 29.48C167.607 29.096 168.034 28.6053 168.311 28.008H172.471C172.173 29.0107 171.671 29.928 170.967 30.76C170.285 31.5707 169.431 32.2107 168.407 32.68C167.405 33.1493 166.263 33.384 164.983 33.384ZM165.015 20.072C164.013 20.072 163.127 20.36 162.359 20.936C161.591 21.4907 161.101 22.344 160.887 23.496H168.791C168.727 22.4507 168.343 21.6187 167.639 21C166.935 20.3813 166.061 20.072 165.015 20.072Z" fill="#212126"/>
<defs>
<clipPath id="clip0_4_879">
<rect width="48" height="48" fill="white"/>
</clipPath>
</defs>
</svg>