<svg id="Layer_1" data-name="Layer 1" xmlns="http://www.w3.org/2000/svg" xmlns:xlink="http://www.w3.org/1999/xlink" viewBox="0 0 1169.85 231.7"><defs><clipPath id="clip-path" transform="translate(-74.15 -315.16)"><rect x="74.15" y="316.48" width="201.6" height="201.6" style="fill:none"/></clipPath><clipPath id="clip-path-2" transform="translate(-74.15 -315.16)"><rect x="74.32" y="316.43" width="201.6" height="201.6" style="fill:none"/></clipPath><clipPath id="clip-path-3" transform="translate(-74.15 -315.16)"><rect x="74.21" y="316.53" width="201.6" height="201.6" style="fill:none"/></clipPath></defs><g style="clip-path:url(#clip-path)"><path d="M145.84,317.19a84.19,84.19,0,0,0-48.38,24.88,83,83,0,0,0-21.87,41.4,100.44,100.44,0,0,0-.84,27.8,82.78,82.78,0,0,0,17.88,41.07c1.64,2,17,17.67,34.21,34.73l31.23,31,31-30.8c17.06-16.93,32.47-32.56,34.25-34.72,10.88-13.25,17.78-30.81,18.57-47.29l.25-5.36-31.56.23-.3,4.36a52.18,52.18,0,0,1-15,32.21,54.05,54.05,0,0,1-27.94,14.55,70.28,70.28,0,0,1-18.61,0A56.88,56.88,0,0,1,128.42,443a65.8,65.8,0,0,1-12.66-12.31,52.25,52.25,0,0,1-9.31-21.21,66.66,66.66,0,0,1,0-19.08,52.48,52.48,0,0,1,42-41.83,39,39,0,0,1,5.59-.67,37.76,37.76,0,0,0,4-.54V316.48l-4.06,0A72.94,72.94,0,0,0,145.84,317.19Z" transform="translate(-74.15 -315.16)" style="fill:#0e0eeb;fill-rule:evenodd"/></g><g style="clip-path:url(#clip-path-2)"><path d="M179.32,331.72V347l18.1.12,15.25.11.1,15.83.11,16.36h29.44v-63h-63Z" transform="translate(-74.15 -315.16)" style="fill:#fe4545;fill-rule:evenodd"/></g><g style="clip-path:url(#clip-path-3)"><circle cx="84.06" cy="85.37" r="29.4" style="fill:#fe4545"/></g><g id="eb8827a1-54e1-496b-a628-4e0bc8015cb8"><g style="isolation:isolate"><text transform="translate(174.49 170.69) scale(0.93 1)" style="isolation:isolate;font-size:198.95957946777344px;fill:#0e0eeb;font-family:Arial-Black, Arial;font-weight:800">Dri<tspan x="309.32" y="0" style="letter-spacing:-0.02587774916951622em">v</tspan><tspan x="425.7" y="0">e</tspan></text><text transform="translate(667.97 170.69) scale(0.93 1)" style="isolation:isolate;font-size:198.95957946777344px;fill:#fe4545;font-family:Arial-Black, Arial;font-weight:800">Time</text></g></g></svg>